<svg width="128" height="128" viewBox="0 0 128 128" fill="none" xmlns="http://www.w3.org/2000/svg">
<rect width="128" height="128" fill="#1F2E55"/>
<path d="M24.0898 67.4648C24.0898 66.8633 23.875 66.3945 23.4453 66.0586C23.0234 65.7227 22.2773 65.375 21.207 65.0156C20.1367 64.6562 19.2617 64.3086 18.582 63.9727C16.3711 62.8867 15.2656 61.3945 15.2656 59.4961C15.2656 58.5508 15.5391 57.7188 16.0859 57C16.6406 56.2734 17.4219 55.7109 18.4297 55.3125C19.4375 54.9062 20.5703 54.7031 21.8281 54.7031C23.0547 54.7031 24.1523 54.9219 25.1211 55.3594C26.0977 55.7969 26.8555 56.4219 27.3945 57.2344C27.9336 58.0391 28.2031 58.9609 28.2031 60H24.1016C24.1016 59.3047 23.8867 58.7656 23.457 58.3828C23.0352 58 22.4609 57.8086 21.7344 57.8086C21 57.8086 20.418 57.9727 19.9883 58.3008C19.5664 58.6211 19.3555 59.0312 19.3555 59.5312C19.3555 59.9688 19.5898 60.3672 20.0586 60.7266C20.5273 61.0781 21.3516 61.4453 22.5312 61.8281C23.7109 62.2031 24.6797 62.6094 25.4375 63.0469C27.2812 64.1094 28.2031 65.5742 28.2031 67.4414C28.2031 68.9336 27.6406 70.1055 26.5156 70.957C25.3906 71.8086 23.8477 72.2344 21.8867 72.2344C20.5039 72.2344 19.25 71.9883 18.125 71.4961C17.0078 70.9961 16.1641 70.3164 15.5938 69.457C15.0312 68.5898 14.75 67.5938 14.75 66.4688H18.875C18.875 67.3828 19.1094 68.0586 19.5781 68.4961C20.0547 68.9258 20.8242 69.1406 21.8867 69.1406C22.5664 69.1406 23.1016 68.9961 23.4922 68.707C23.8906 68.4102 24.0898 67.9961 24.0898 67.4648ZM35.4922 69.1875C36.0469 69.1875 36.4766 69.0391 36.7812 68.7422C37.0859 68.4375 37.2344 68.0156 37.2266 67.4766H40.9297C40.9297 68.8672 40.4297 70.0078 39.4297 70.8984C38.4375 71.7891 37.1562 72.2344 35.5859 72.2344C33.7422 72.2344 32.2891 71.6562 31.2266 70.5C30.1641 69.3438 29.6328 67.7422 29.6328 65.6953V65.5312C29.6328 64.25 29.8672 63.1211 30.3359 62.1445C30.8125 61.1602 31.4961 60.4062 32.3867 59.8828C33.2773 59.3516 34.332 59.0859 35.5508 59.0859C37.1992 59.0859 38.5078 59.543 39.4766 60.457C40.4453 61.3711 40.9297 62.6094 40.9297 64.1719H37.2266C37.2266 63.5156 37.0664 63.0117 36.7461 62.6602C36.4258 62.3086 35.9961 62.1328 35.457 62.1328C34.4336 62.1328 33.8359 62.7852 33.6641 64.0898C33.6094 64.5039 33.582 65.0742 33.582 65.8008C33.582 67.0742 33.7344 67.957 34.0391 68.4492C34.3438 68.9414 34.8281 69.1875 35.4922 69.1875ZM42.7812 72V54.9375H48.9102C51.1055 54.9375 52.7734 55.3398 53.9141 56.1445C55.0625 56.9492 55.6367 58.1172 55.6367 59.6484C55.6367 60.5312 55.4336 61.2852 55.0273 61.9102C54.6211 62.5352 54.0234 62.9961 53.2344 63.293C54.125 63.5273 54.8086 63.9648 55.2852 64.6055C55.7617 65.2461 56 66.0273 56 66.9492C56 68.6211 55.4688 69.8789 54.4062 70.7227C53.3516 71.5586 51.7852 71.9844 49.707 72H42.7812ZM46.8945 64.7461V68.8359H49.5898C50.332 68.8359 50.9023 68.668 51.3008 68.332C51.6992 67.9883 51.8984 67.5078 51.8984 66.8906C51.8984 65.4688 51.1914 64.7539 49.7773 64.7461H46.8945ZM46.8945 62.0508H49.0391C49.9375 62.043 50.5781 61.8789 50.9609 61.5586C51.3438 61.2383 51.5352 60.7656 51.5352 60.1406C51.5352 59.4219 51.3281 58.9062 50.9141 58.5938C50.5 58.2734 49.832 58.1133 48.9102 58.1133H46.8945V62.0508ZM62.2578 72H58.2969V54H62.2578V72ZM64.2031 65.543C64.2031 64.2773 64.4492 63.1523 64.9414 62.168C65.4336 61.1758 66.1406 60.4141 67.0625 59.8828C67.9844 59.3516 69.0664 59.0859 70.3086 59.0859C72.207 59.0859 73.7031 59.6758 74.7969 60.8555C75.8906 62.0273 76.4375 63.625 76.4375 65.6484V65.7891C76.4375 67.7656 75.8867 69.3359 74.7852 70.5C73.6914 71.6562 72.207 72.2344 70.332 72.2344C68.5273 72.2344 67.0781 71.6953 65.9844 70.6172C64.8906 69.5312 64.3008 68.0625 64.2148 66.2109L64.2031 65.543ZM68.1523 65.7891C68.1523 66.9609 68.3359 67.8203 68.7031 68.3672C69.0703 68.9141 69.6133 69.1875 70.332 69.1875C71.7383 69.1875 72.457 68.1055 72.4883 65.9414V65.543C72.4883 63.2695 71.7617 62.1328 70.3086 62.1328C68.9883 62.1328 68.2734 63.1133 68.1641 65.0742L68.1523 65.7891ZM83.5391 69.1875C84.0938 69.1875 84.5234 69.0391 84.8281 68.7422C85.1328 68.4375 85.2812 68.0156 85.2734 67.4766H88.9766C88.9766 68.8672 88.4766 70.0078 87.4766 70.8984C86.4844 71.7891 85.2031 72.2344 83.6328 72.2344C81.7891 72.2344 80.3359 71.6562 79.2734 70.5C78.2109 69.3438 77.6797 67.7422 77.6797 65.6953V65.5312C77.6797 64.25 77.9141 63.1211 78.3828 62.1445C78.8594 61.1602 79.543 60.4062 80.4336 59.8828C81.3242 59.3516 82.3789 59.0859 83.5977 59.0859C85.2461 59.0859 86.5547 59.543 87.5234 60.457C88.4922 61.3711 88.9766 62.6094 88.9766 64.1719H85.2734C85.2734 63.5156 85.1133 63.0117 84.793 62.6602C84.4727 62.3086 84.043 62.1328 83.5039 62.1328C82.4805 62.1328 81.8828 62.7852 81.7109 64.0898C81.6562 64.5039 81.6289 65.0742 81.6289 65.8008C81.6289 67.0742 81.7812 67.957 82.0859 68.4492C82.3906 68.9414 82.875 69.1875 83.5391 69.1875ZM95.7383 67.2773L94.625 68.3906V72H90.6758V53.9883H94.625V63.5508L95.0234 63.0234L98 59.3203H102.734L98.293 64.5352L103.027 72H98.5039L95.7383 67.2773ZM110.41 68.4375C110.41 68.1016 110.234 67.832 109.883 67.6289C109.531 67.4258 108.863 67.2148 107.879 66.9961C106.895 66.7773 106.082 66.4922 105.441 66.1406C104.801 65.7812 104.312 65.3477 103.977 64.8398C103.641 64.332 103.473 63.75 103.473 63.0938C103.473 61.9297 103.953 60.9727 104.914 60.2227C105.875 59.4648 107.133 59.0859 108.688 59.0859C110.359 59.0859 111.703 59.4648 112.719 60.2227C113.734 60.9805 114.242 61.9766 114.242 63.2109H110.281C110.281 62.1953 109.746 61.6875 108.676 61.6875C108.262 61.6875 107.914 61.8047 107.633 62.0391C107.352 62.2656 107.211 62.5508 107.211 62.8945C107.211 63.2461 107.383 63.5312 107.727 63.75C108.07 63.9688 108.617 64.1484 109.367 64.2891C110.125 64.4297 110.789 64.5977 111.359 64.793C113.266 65.4492 114.219 66.625 114.219 68.3203C114.219 69.4766 113.703 70.418 112.672 71.1445C111.648 71.8711 110.32 72.2344 108.688 72.2344C107.602 72.2344 106.633 72.0391 105.781 71.6484C104.93 71.2578 104.266 70.7266 103.789 70.0547C103.312 69.3828 103.074 68.6758 103.074 67.9336H106.766C106.781 68.5195 106.977 68.9492 107.352 69.2227C107.727 69.4883 108.207 69.6211 108.793 69.6211C109.332 69.6211 109.734 69.5117 110 69.293C110.273 69.0742 110.41 68.7891 110.41 68.4375Z" fill="white"/>
</svg>
